<svg width="93" height="94" viewBox="0 0 93 94" fill="none" xmlns="http://www.w3.org/2000/svg">
<rect y="0.5" width="93" height="93" rx="46.5" fill="#FBDDDD" fill-opacity="0.29"/>
<circle cx="46" cy="47" r="35" fill="#FBDDDD" fill-opacity="0.29"/>
<path d="M36.3333 36.8333C36.687 36.8333 37.0261 36.6928 37.2761 36.4428C37.5262 36.1927 37.6667 35.8536 37.6667 35.5V27.5C37.6667 27.1463 37.5262 26.8072 37.2761 26.5572C37.0261 26.3071 36.687 26.1666 36.3333 26.1666C35.9797 26.1666 35.6406 26.3071 35.3905 26.5572C35.1405 26.8072 35 27.1463 35 27.5V35.5C35 35.8536 35.1405 36.1927 35.3905 36.4428C35.6406 36.6928 35.9797 36.8333 36.3333 36.8333Z" fill="#D52424"/>
<path d="M57.6666 36.8333C58.0202 36.8333 58.3593 36.6928 58.6094 36.4428C58.8594 36.1927 58.9999 35.8536 58.9999 35.5V27.5C58.9999 27.1463 58.8594 26.8072 58.6094 26.5572C58.3593 26.3071 58.0202 26.1666 57.6666 26.1666C57.313 26.1666 56.9738 26.3071 56.7238 26.5572C56.4737 26.8072 56.3333 27.1463 56.3333 27.5V35.5C56.3333 35.8536 56.4737 36.1927 56.7238 36.4428C56.9738 36.6928 57.313 36.8333 57.6666 36.8333Z" fill="#D52424"/>
<path d="M65.9999 31.5H60.6666V35.5C60.6666 36.278 60.3576 37.0241 59.8074 37.5742C59.2573 38.1243 58.5112 38.4334 57.7333 38.4334C56.9553 38.4334 56.2092 38.1243 55.6591 37.5742C55.109 37.0241 54.7999 36.278 54.7999 35.5V31.5H39.2666V35.5C39.2666 36.278 38.9576 37.0241 38.4074 37.5742C37.8573 38.1243 37.1112 38.4334 36.3333 38.4334C35.5553 38.4334 34.8092 38.1243 34.2591 37.5742C33.709 37.0241 33.3999 36.278 33.3999 35.5V31.5H28.0666C27.7493 31.4964 27.4345 31.5565 27.1408 31.6766C26.8471 31.7968 26.5805 31.9747 26.3568 32.1997C26.133 32.4247 25.9566 32.6923 25.8381 32.9866C25.7195 33.281 25.6612 33.5961 25.6666 33.9134V63.7534C25.6613 64.065 25.7175 64.3747 25.8319 64.6647C25.9463 64.9547 26.1167 65.2193 26.3334 65.4434C26.55 65.6675 26.8087 65.8467 27.0947 65.9708C27.3806 66.0949 27.6883 66.1615 27.9999 66.1667H65.9999C66.3116 66.1615 66.6192 66.0949 66.9052 65.9708C67.1911 65.8467 67.4498 65.6675 67.6665 65.4434C67.8832 65.2193 68.0536 64.9547 68.168 64.6647C68.2824 64.3747 68.3386 64.065 68.3333 63.7534V33.9134C68.3386 33.6017 68.2824 33.292 68.168 33.002C68.0536 32.7121 67.8832 32.4475 67.6665 32.2234C67.4498 31.9992 67.1911 31.82 66.9052 31.6959C66.6192 31.5718 66.3116 31.5052 65.9999 31.5ZM57.5866 45.6067L44.6933 58.5L37.6666 51.42C37.3553 51.0776 37.1867 50.6292 37.1953 50.1665C37.2038 49.7039 37.389 49.262 37.7128 48.9314C38.0366 48.6008 38.4745 48.4065 38.9369 48.3882C39.3993 48.37 39.8511 48.5293 40.1999 48.8334L44.7066 53.34L54.9999 43.0467C55.1689 42.8777 55.3695 42.7437 55.5903 42.6523C55.811 42.5608 56.0476 42.5137 56.2866 42.5137C56.5256 42.5137 56.7622 42.5608 56.9829 42.6523C57.2037 42.7437 57.4043 42.8777 57.5733 43.0467C57.7422 43.2157 57.8763 43.4163 57.9677 43.637C58.0592 43.8578 58.1062 44.0944 58.1062 44.3334C58.1062 44.5723 58.0592 44.8089 57.9677 45.0297C57.8763 45.2505 57.7422 45.4511 57.5733 45.62L57.5866 45.6067Z" fill="#D52424"/>
</svg>
