<svg width="93" height="94" viewBox="0 0 93 94" fill="none" xmlns="http://www.w3.org/2000/svg">
<rect y="0.5" width="93" height="93" rx="46.5" fill="#FBDDDD" fill-opacity="0.29"/>
<circle cx="46" cy="47" r="35" fill="#FBDDDD" fill-opacity="0.29"/>
<path d="M26 65.5H68V68.5H26V65.5ZM63.5 40C63.8978 40 64.2794 39.8419 64.5607 39.5606C64.842 39.2793 65 38.8978 65 38.5V34C64.9999 33.6917 64.9048 33.391 64.7276 33.1387C64.5505 32.8864 64.2999 32.6948 64.01 32.59L47.51 26.59C47.1804 26.4708 46.8196 26.4708 46.49 26.59L29.99 32.59C29.7001 32.6948 29.4495 32.8864 29.2724 33.1387C29.0952 33.391 29.0001 33.6917 29 34V38.5C29 38.8978 29.158 39.2793 29.4393 39.5606C29.7206 39.8419 30.1022 40 30.5 40H32V59.5H29V62.5H65V59.5H62V40H63.5ZM32 35.05L47 29.59L62 35.05V37H32V35.05ZM50 59.5H44V40H50V59.5ZM35 40H41V59.5H35V40ZM59 59.5H53V40H59V59.5Z" fill="#D52424"/>
</svg>
