<svg width="93" height="94" viewBox="0 0 93 94" fill="none" xmlns="http://www.w3.org/2000/svg">
<rect y="0.5" width="93" height="93" rx="46.5" fill="#FBDDDD" fill-opacity="0.29"/>
<circle cx="46" cy="47" r="35" fill="#FBDDDD" fill-opacity="0.29"/>
<path d="M60.7599 63.5V55.5C63 55.18 64.5999 53.26 64.5999 50.7C64.5999 48.14 62.3599 45.9 59.7999 45.9C57.24 45.9 55 48.14 55 50.7C55 52.94 56.5999 55.18 58.8399 55.5V63.5H45.4V26.7H29.4V63.5H26.2V65.1H67.7999V63.5H60.7599ZM42.2 55.5H32.6V52.3H42.2V55.5ZM42.2 49.1H32.6V45.9H42.2V49.1ZM42.2 42.7H32.6V39.5H42.2V42.7ZM42.2 36.3H32.6V33.1H42.2V36.3Z" fill="#D52424"/>
</svg>
